<?xml version="1.0" encoding="utf-8"?>
<!-- Generator: Adobe Illustrator 20.1.0, SVG Export Plug-In . SVG Version: 6.00 Build 0)  -->
<svg version="1.1" id="Layer_1" xmlns="http://www.w3.org/2000/svg" xmlns:xlink="http://www.w3.org/1999/xlink" x="0px" y="0px"
	 viewBox="0 0 386 386" style="enable-background:new 0 0 386 386;" xml:space="preserve">
<style type="text/css">
	.st0{fill:#0B9444;}
</style>
<g id="layer1">
	<path class="st0" d="M97,362.7c-3.8-4.1-93.2-159.9-93.2-162.5c0-2.6,89.4-158.7,93.3-163l2-2.2h93.7h93.6l2.5,2.8
		c2.2,2.3,22.1,36.5,79.6,136.6c10.7,18.6,14.2,25.5,13.7,27c-0.6,1.8-27.2,48.3-79.8,139.1c-6.6,11.5-12.9,21.8-13.8,22.7
		c-1.7,1.7-7.5,1.8-95.6,1.8H99.1L97,362.7z M150.1,345.8c-7.2-8-12-16.2-15-26.2c-0.8-2.7-1.3-2-10.1,13.2
		c-5.1,8.8-9.2,16.3-9.2,16.6c0,0.3,8.6,0.6,19.1,0.6h19.2L150.1,345.8z M262.2,335.3c-4.7-8.2-9-15.6-9.6-16.7
		c-0.8-1.5-1.3-0.8-3.1,4.5c-2.9,8.3-6.5,14.4-12.8,21.3l-5.1,5.6h19.6h19.5L262.2,335.3z M202,347.9c18.2-3.8,32.2-18.8,34.7-37.2
		c0.9-6.5,0-17.2-1.7-20.3c-0.5-0.9-6.4,2-20.4,10.2c-10.8,6.3-20.6,11.4-21.7,11.4c-1,0-10.9-5.2-21.8-11.5L151.3,289l-1.2,3.8
		c-1.8,5.9-1.6,18.2,0.6,25.1C157.5,339.7,179.5,352.6,202,347.9z M111.6,326c5.1-8.7,9.2-16.1,9.2-16.4s-1.2,0-2.7,0.6
		c-4,1.7-25.9,1.6-30.6,0c-2.1-0.8-4-1.2-4.2-1c-0.5,0.5,17.8,32.7,18.6,32.8C102.2,342,106.6,334.8,111.6,326z M293.6,325.9
		c5.1-8.9,9-16.4,8.8-16.7c-0.3-0.2-2,0.1-3.8,0.8c-5.6,2-20.6,2.4-27.6,0.7c-3.5-0.8-6.2-1.1-6-0.7c0.9,2.2,18.4,32,18.8,32
		C284.1,342,288.5,334.7,293.6,325.9z M110.9,296c7.4-1.4,16.5-5.9,21.9-10.8c2.5-2.2,4.3-4.2,4-4.4c-0.3-0.3-8.9-5.3-19.3-11.2
		c-10.3-6-19.6-11.9-20.7-13.3c-1.9-2.4-2-4.1-2-24.9V209h-2.2c-3.1,0-12.1,4.3-17.9,8.5c-5.6,4.2-11.2,12.3-14,20.3
		c-1.7,4.6-2,7.6-1.7,16.3c0.3,9.8,0.6,11.1,4,18.1C71.8,289.9,91.4,299.7,110.9,296z M291.4,295.9c3.2-0.6,8.4-2.2,11.4-3.7
		c7.2-3.3,16.9-13.1,20.3-20.3c10.5-22.4,1.4-48.9-20.5-59.4c-4-1.9-8.3-3.5-9.5-3.5h-2.3v22.4c0,20.9-0.1,22.5-2,24.9
		c-1.1,1.4-10.3,7.4-20.5,13.2c-10.2,5.9-18.7,11.1-19,11.5c-0.7,1.1,5.3,6.2,11.2,9.7c5.3,3.1,15.8,6.2,21.4,6.2
		C283.8,297,288.1,296.5,291.4,295.9z M184.8,275.9v-15.1l-3.2,0.6c-5.3,1-13.4,5.4-18.5,10l-4.7,4.3l9.9,5.8
		c5.5,3.2,11.4,6.6,13,7.6c1.7,1,3.1,1.9,3.3,1.9C184.7,291,184.8,284.2,184.8,275.9z M217.6,281.5c4.5-2.7,8.5-5.1,8.7-5.5
		c0.3-0.4-1.6-2.7-4.1-5c-4.7-4.3-12.6-8.5-18.2-9.6l-3.2-0.6V276v15.2l4.3-2.5C207.4,287.4,213,284.1,217.6,281.5z M146.5,249.9
		c-0.3-8.5-0.8-10.4-4-17.1c-5.6-11.6-14.9-19.4-27.4-23.1l-5.3-1.6v19.8v19.8l17.3,10l17.2,10.1l1.3-4.2
		C146.5,260.9,146.8,256.2,146.5,249.9z M261.6,256l14.2-8.2V228v-19.9l-5.2,1.5c-22.7,6.6-36,29.9-30.6,53.3l1.1,5.1l3.1-1.9
		C245.9,265.1,253.7,260.5,261.6,256z M184.8,222.3v-19.8l-16.8-9.6l-16.7-9.7l-1.2,3.7c-0.6,2-1.2,7.2-1.2,11.6
		c-0.1,12.2,3.4,21.8,11.2,30.2c5.2,5.7,8.7,8.1,15.6,10.9C185.4,243.6,184.8,244.8,184.8,222.3z M209.9,239.7
		c12.2-5.1,20.7-14.1,24.9-26.7c2.5-7.3,3-18.8,1.1-25.7l-1.1-4.1l-14.8,8.5c-8.1,4.6-15.7,9.1-16.9,9.9c-2.3,1.4-2.3,1.8-2.3,20.9
		C200.8,244.8,200.2,243.6,209.9,239.7z M45.3,236.3c1.1-5.9,7-16.6,12.5-22.7L63,208H43.9c-10.5,0-19.1,0.2-19.1,0.5
		c0,1.4,18.5,32.3,19.1,32C44.3,240.2,44.9,238.4,45.3,236.3z M351.7,225.1c5-8.7,9.1-16.1,9.1-16.5c0-0.3-8.4-0.6-18.6-0.6h-18.6
		l4,4.8c6.2,7.4,9.8,13.6,12.2,21.2c1.2,3.8,2.4,7,2.5,7C342.5,241,346.7,233.9,351.7,225.1z M57.9,187c-6.5-7.8-9.5-13-12.2-21.3
		c-1.2-3.7-2.3-6.6-2.4-6.5c-0.3,0.3-11.4,19.7-16.1,28.1l-3.3,5.7h19.5h19.5L57.9,187z M358.5,187.2c-1.7-3.1-6.1-10.8-9.7-17
		l-6.4-11.2l-2.6,7.3c-3.2,9.1-6.6,14.9-12.5,21.5l-4.7,5.2h19.6h19.6L358.5,187.2z M97.3,143.1c1.1-1,9.9-6.4,19.5-11.9
		c9.6-5.6,18.2-10.5,19-11c2.3-1.4-5-7.7-13.9-12c-6.4-3.1-8.7-3.7-16.4-4c-11-0.6-19.4,1.5-27.5,6.8c-7.1,4.5-11.3,9.5-15.5,18
		c-2.7,5.7-3.2,7.8-3.5,16.5c-0.5,12,1.1,18.6,6.7,27.2c5.7,8.8,14.7,15.5,24,17.9l4.6,1.1l0.5-23.3
		C95.3,146.7,95.4,144.9,97.3,143.1z M116.9,190c6.6-2.1,16.2-8.1,18.5-11.6c1.3-1.8,0.6-2.4-11.1-9.2c-6.9-4-12.9-7.2-13.5-7.2
		s-1,5.7-1,15c0,8.3,0.2,15,0.4,15C110.4,192,113.4,191.1,116.9,190z M275.8,176.5v-15.6l-4.2,2.5c-2.4,1.4-8.5,4.9-13.6,7.9
		l-9.2,5.4l2.7,2.8c4.6,4.5,10.6,8.2,16.9,10.4c3.2,1.1,6.2,2,6.7,2.1C275.5,192,275.8,185,275.8,176.5z M302.3,188
		c17.1-7.7,27.6-27.4,24.7-46.3c-2.7-17.3-13.7-30.4-30-35.8c-5.2-1.7-8.1-2.1-16.2-1.7c-8.8,0.3-10.4,0.7-17.1,4
		c-4.1,2-9.1,5.4-11.1,7.5l-3.8,3.9l18.3,10.4c10,5.8,19.4,11.7,21,13.2l2.7,2.6v23.1V192l2.8-0.6C295.1,191,299,189.5,302.3,188z
		 M209.6,180.4c9.2-5.3,16.9-9.8,17.1-10c1.2-1.1-7.2-7.9-13.4-11c-13.3-6.6-26.7-6.8-39.8-0.6c-6.4,3-16,11-14.2,11.8
		c0.6,0.3,8.2,4.7,17,9.9c8.8,5.1,16.1,9.4,16.3,9.4C192.7,190,200.4,185.7,209.6,180.4z M145.3,161.3c2-5.2,1.7-23.7-0.4-27.2
		c-0.7-1-3.7,0.3-13.5,6c-6.9,4-12.5,7.7-12.4,8.1c0.3,0.8,23.8,14.7,24.9,14.8C144.3,163,144.9,162.2,145.3,161.3z M255.7,155.2
		c8.8-5,11.8-7.2,10.9-7.9c-1.9-1.4-24.4-14.3-25-14.3c-1.1,0-2.8,9-2.8,15c0,7.7,1.8,15.3,3.5,14.6C243,162.4,249,159,255.7,155.2z
		 M207.2,138c6.3-2,18.5-9.9,19.3-12.6c0.3-1-31.7-20.4-33.6-20.4c-1.5,0-32.7,18.5-33,19.5c-0.9,3.1,13.2,12.4,21.7,14.4
		C188.5,140.6,200.2,140.1,207.2,138z M171.7,99.5c10.9-6.3,20.4-11.5,21.1-11.5c0.7,0,10.1,5.1,20.8,11.3
		c10.8,6.1,19.9,11.3,20.2,11.5c2.3,0.9,4-13.2,2.8-21.8c-2.2-14.3-11.2-26.7-24.3-33.1c-6.8-3.3-7.3-3.4-19.5-3.4
		c-10.9,0-13.1,0.3-17.5,2.3c-16.7,7.7-26.5,22.9-26.5,40.9c0,7.2,1.4,15.3,2.6,15.3C151.7,111,160.8,105.8,171.7,99.5z M294,75
		c-5.3-9.3-9.9-16.9-10.2-16.9c-0.6,0-19,32.2-18.6,32.6c0.1,0.1,2-0.3,4.2-0.9c5.6-1.7,24-1.4,28.9,0.5c2.2,0.9,4.3,1.6,4.7,1.6
		C303.4,92,299.3,84.4,294,75z M95.6,88.9c6.9-1.1,18.5-0.3,23.7,1.7c1,0.4,1.6,0.3,1.4-0.3c-1.3-3.4-18.5-32.1-19-31.7
		c-0.3,0.2-3.8,5.9-7.6,12.6C90.2,78,86,85.3,84.7,87.4l-2.3,3.9l3-0.6C87,90.3,91.6,89.5,95.6,88.9z M139.8,69
		c2.8-5.6,10.3-15.4,13.3-17.5c2-1.4,0.4-1.5-18-1.5H115l9.6,16.8l9.7,16.8l1.6-5C136.8,75.8,138.5,71.5,139.8,69z M260.5,68
		c3.6-6.3,7.4-13,8.5-14.7l2-3.3h-19.6h-19.6l6,7.2c6.2,7.3,11.2,16.5,12.5,22.7c0.7,3.3,0.8,3.4,2.2,1.5
		C253.3,80.4,256.9,74.3,260.5,68z"/>
</g>
</svg>
